<svg width="6" height="11" viewBox="0 0 6 11" fill="none" xmlns="http://www.w3.org/2000/svg">
<path d="M1.16998 1.79498C1.059 1.90525 1 2.02887 1 2.15178C1 2.2747 1.0583 2.39832 1.16998 2.5093L3.90926 5.24858L4.009 5.34832L3.90926 5.44806L1.24021 8.11711C1.12924 8.22808 1.07024 8.351 1.07024 8.47392C1.07024 8.59683 1.12854 8.72045 1.24021 8.83143L1.25637 8.84688L1.2662 8.86725C1.30413 8.94381 1.45374 9 1.5619 9C1.66305 9 1.77121 8.94311 1.8843 8.83073L5.04431 5.67001C5.15529 5.55904 5.21429 5.43542 5.21429 5.3125C5.21429 5.18958 5.15529 5.06596 5.04431 4.95569L1.88359 1.79498C1.77262 1.684 1.6497 1.625 1.52679 1.625C1.40387 1.625 1.28095 1.684 1.16998 1.79498Z" fill="currentColor"/>
</svg>
