<svg width="26" height="23" viewBox="0 0 26 23" fill="none" xmlns="http://www.w3.org/2000/svg">
<path d="M23.1961 3.43333H19.5268L17.7157 0.826334C17.6457 0.725791 17.551 0.643387 17.4398 0.586454C17.3286 0.52952 17.2045 0.499822 17.0784 0.500001H8.92157C8.79553 0.499822 8.6714 0.52952 8.56022 0.586454C8.44905 0.643387 8.35426 0.725791 8.28431 0.826334L6.47196 3.43333H2.80392C2.06028 3.43333 1.34709 3.71663 0.821249 4.22089C0.295412 4.72516 0 5.40909 0 6.12222V19.8111C0 20.5243 0.295412 21.2082 0.821249 21.7124C1.34709 22.2167 2.06028 22.5 2.80392 22.5H23.1961C23.9397 22.5 24.6529 22.2167 25.1788 21.7124C25.7046 21.2082 26 20.5243 26 19.8111V6.12222C26 5.40909 25.7046 4.72516 25.1788 4.22089C24.6529 3.71663 23.9397 3.43333 23.1961 3.43333ZM24.4706 19.8111C24.4706 20.1353 24.3363 20.4461 24.0973 20.6754C23.8583 20.9046 23.5341 21.0333 23.1961 21.0333H2.80392C2.4659 21.0333 2.14172 20.9046 1.90271 20.6754C1.66369 20.4461 1.52941 20.1353 1.52941 19.8111V6.12222C1.52941 5.79807 1.66369 5.48719 1.90271 5.25798C2.14172 5.02877 2.4659 4.9 2.80392 4.9H6.88235C7.00839 4.90018 7.13252 4.87048 7.2437 4.81355C7.35488 4.75661 7.44966 4.67421 7.51961 4.57367L9.33069 1.96667H16.668L18.4804 4.57367C18.5503 4.67421 18.6451 4.75661 18.7563 4.81355C18.8675 4.87048 18.9916 4.90018 19.1176 4.9H23.1961C23.5341 4.9 23.8583 5.02877 24.0973 5.25798C24.3363 5.48719 24.4706 5.79807 24.4706 6.12222V19.8111ZM13 7.34445C11.9413 7.34445 10.9064 7.64551 10.0261 8.20957C9.14578 8.77363 8.45968 9.57534 8.05453 10.5133C7.64938 11.4513 7.54337 12.4835 7.74991 13.4792C7.95646 14.475 8.46628 15.3897 9.2149 16.1076C9.96352 16.8255 10.9173 17.3144 11.9557 17.5125C12.9941 17.7105 14.0704 17.6089 15.0485 17.2204C16.0266 16.8318 16.8626 16.1739 17.4508 15.3297C18.039 14.4855 18.3529 13.4931 18.3529 12.4778C18.3529 11.1163 17.789 9.81065 16.7851 8.84796C15.7812 7.88528 14.4197 7.34445 13 7.34445ZM13 16.1444C12.2438 16.1444 11.5045 15.9294 10.8758 15.5265C10.247 15.1236 9.75691 14.5509 9.46752 13.881C9.17813 13.211 9.10241 12.4737 9.24994 11.7624C9.39747 11.0512 9.76163 10.3978 10.2964 9.88505C10.8311 9.37226 11.5124 9.02305 12.2541 8.88157C12.9958 8.74009 13.7645 8.8127 14.4632 9.09022C15.1619 9.36774 15.759 9.83771 16.1791 10.4407C16.5993 11.0437 16.8235 11.7526 16.8235 12.4778C16.8235 13.4502 16.4207 14.3829 15.7036 15.0705C14.9866 15.7581 14.0141 16.1444 13 16.1444Z" fill="#59D37D"/>
</svg>
