<svg width="16" height="16" viewBox="0 0 16 16" fill="none" xmlns="http://www.w3.org/2000/svg">
<g clip-path="url(#clip0_236_3416)">
<path d="M8.17081 8.37251C8.921 8.37251 9.64046 8.06393 10.1709 7.51464C10.7014 6.96536 10.9994 6.22038 10.9994 5.44358C10.9994 4.66678 10.7014 3.92179 10.1709 3.37251C9.64046 2.82323 8.921 2.51465 8.17081 2.51465C7.42063 2.51465 6.70117 2.82323 6.17071 3.37251C5.64025 3.92179 5.34224 4.66678 5.34224 5.44358C5.34224 6.22038 5.64025 6.96536 6.17071 7.51464C6.70117 8.06393 7.42063 8.37251 8.17081 8.37251ZM10.0565 5.44358C10.0565 5.96145 9.85786 6.4581 9.50422 6.82429C9.15058 7.19048 8.67094 7.3962 8.17081 7.3962C7.67069 7.3962 7.19105 7.19048 6.83741 6.82429C6.48377 6.4581 6.2851 5.96145 6.2851 5.44358C6.2851 4.92571 6.48377 4.42905 6.83741 4.06287C7.19105 3.69668 7.67069 3.49096 8.17081 3.49096C8.67094 3.49096 9.15058 3.69668 9.50422 4.06287C9.85786 4.42905 10.0565 4.92571 10.0565 5.44358ZM13.828 13.2541C13.828 14.2304 12.8851 14.2304 12.8851 14.2304H3.45653C3.45653 14.2304 2.51367 14.2304 2.51367 13.2541C2.51367 12.2777 3.45653 9.34882 8.17081 9.34882C12.8851 9.34882 13.828 12.2777 13.828 13.2541ZM12.8851 13.2502C12.8842 13.01 12.7399 12.2875 12.1006 11.6256C11.4859 10.989 10.329 10.3251 8.17081 10.3251C6.01167 10.3251 4.85573 10.989 4.24099 11.6256C3.60173 12.2875 3.45841 13.01 3.45653 13.2502H12.8851Z" fill="#6A7282"/>
</g>
<defs>
<clipPath id="clip0_236_3416">
<rect width="12.3429" height="12.3429" fill="white" transform="translate(2 2)"/>
</clipPath>
</defs>
</svg>
