<svg width="25" height="28" viewBox="0 0 25 28" fill="none" xmlns="http://www.w3.org/2000/svg">
<path d="M10.17 10.17C10.059 10.2802 10 10.4039 10 10.5268C10 10.6497 10.0583 10.7733 10.17 10.8843L12.9093 13.6236L13.009 13.7233L12.9093 13.8231L10.2402 16.4921C10.1292 16.6031 10.0702 16.726 10.0702 16.8489C10.0702 16.9718 10.1285 17.0955 10.2402 17.2064L10.2564 17.2219L10.2662 17.2422C10.3041 17.3188 10.4537 17.375 10.5619 17.375C10.663 17.375 10.7712 17.3181 10.8843 17.2057L14.0443 14.045C14.1553 13.934 14.2143 13.8104 14.2143 13.6875C14.2143 13.5646 14.1553 13.441 14.0443 13.3307L10.8836 10.17C10.7726 10.059 10.6497 10 10.5268 10C10.4039 10 10.281 10.059 10.17 10.17Z" fill="#B0B8C1"/>
</svg>
