<svg width="25" height="24" viewBox="0 0 25 24" fill="none" xmlns="http://www.w3.org/2000/svg">
<path d="M17.45 3.65C19.8766 3.65 21.85 5.6234 21.85 8.05C21.85 13.1859 15.7527 17.8851 12.5 20.1753C9.2473 17.8851 3.15 13.1859 3.15 8.05C3.15 5.6234 5.1234 3.65 7.55 3.65C8.25654 3.65159 8.95236 3.82288 9.57889 4.14945C10.2054 4.47603 10.7444 4.94832 11.1503 5.5266L12.5 7.4483L13.8497 5.5277C14.2554 4.94909 14.7942 4.47648 15.4208 4.14969C16.0474 3.82291 16.7433 3.65153 17.45 3.65ZM17.45 2C16.4784 1.99986 15.521 2.23417 14.6593 2.68305C13.7975 3.13192 13.0568 3.78211 12.5 4.5784C11.9432 3.78211 11.2025 3.13192 10.3407 2.68305C9.47899 2.23417 8.52165 1.99986 7.55 2C5.94544 2 4.4066 2.63741 3.272 3.772C2.13741 4.9066 1.5 6.44544 1.5 8.05C1.5 14.3409 8.65 19.5318 12.5 22.185C16.35 19.5318 23.5 14.3409 23.5 8.05C23.5 7.2555 23.3435 6.46879 23.0395 5.73477C22.7354 5.00075 22.2898 4.3338 21.728 3.772C21.1662 3.21021 20.4993 2.76457 19.7652 2.46053C19.0312 2.15649 18.2445 2 17.45 2Z" fill="currentColor"/>
</svg>
