<svg width="24" height="24" viewBox="0 0 24 24" fill="none" xmlns="http://www.w3.org/2000/svg">
<path d="M5.8343 11.0674C5.77225 12.254 5.84365 13.5171 4.7837 14.3119C4.54001 14.4942 4.34226 14.731 4.20621 15.0032C4.07015 15.2755 3.99954 15.5758 4 15.8801C4 16.7276 4.6647 17.4501 5.53 17.4501H17.77C18.6353 17.4501 19.3 16.7276 19.3 15.8801C19.3 15.263 19.0093 14.6816 18.5163 14.3119C17.4564 13.5171 17.5278 12.254 17.4657 11.0674C17.3892 9.57661 16.7431 8.17208 15.6608 7.14392C14.5786 6.11576 13.1428 5.54248 11.65 5.54248C10.1572 5.54248 8.72143 6.11576 7.63916 7.14392C6.55689 8.17208 5.91079 9.57661 5.8343 11.0674Z" stroke="#030712" stroke-linecap="round" stroke-linejoin="round"/>
<path d="M14.1996 17.45C14.1996 18.1263 13.9309 18.7749 13.4527 19.2531C12.9745 19.7313 12.3259 20 11.6496 20C10.9733 20 10.3247 19.7313 9.84649 19.2531C9.36827 18.7749 9.09961 18.1263 9.09961 17.45M10.3746 3.95625C10.3746 4.66005 10.9458 5.55 11.6496 5.55C12.3534 5.55 12.9246 4.66005 12.9246 3.95625C12.9246 3.25245 12.3534 3 11.6496 3C10.9458 3 10.3746 3.25245 10.3746 3.95625Z" stroke="#030712" stroke-linecap="round" stroke-linejoin="round"/>
</svg>
