<svg width="24" height="24" viewBox="0 0 24 24" fill="none" xmlns="http://www.w3.org/2000/svg">
<path d="M12 12.3903C13.4587 12.3903 14.8576 11.7903 15.8891 10.7222C16.9205 9.65417 17.5 8.20559 17.5 6.69514C17.5 5.1847 16.9205 3.73611 15.8891 2.66807C14.8576 1.60002 13.4587 1 12 1C10.5413 1 9.14236 1.60002 8.11091 2.66807C7.07946 3.73611 6.5 5.1847 6.5 6.69514C6.5 8.20559 7.07946 9.65417 8.11091 10.7222C9.14236 11.7903 10.5413 12.3903 12 12.3903ZM15.6667 6.69514C15.6667 7.70211 15.2804 8.66783 14.5927 9.37986C13.9051 10.0919 12.9725 10.4919 12 10.4919C11.0275 10.4919 10.0949 10.0919 9.40728 9.37986C8.71964 8.66783 8.33333 7.70211 8.33333 6.69514C8.33333 5.68818 8.71964 4.72246 9.40728 4.01043C10.0949 3.2984 11.0275 2.89838 12 2.89838C12.9725 2.89838 13.9051 3.2984 14.5927 4.01043C15.2804 4.72246 15.6667 5.68818 15.6667 6.69514ZM23 21.8822C23 23.7806 21.1667 23.7806 21.1667 23.7806H2.83333C2.83333 23.7806 1 23.7806 1 21.8822C1 19.9838 2.83333 14.2887 12 14.2887C21.1667 14.2887 23 19.9838 23 21.8822ZM21.1667 21.8746C21.1648 21.4076 20.8843 20.0028 19.6413 18.7157C18.446 17.4779 16.1965 16.187 12 16.187C7.80167 16.187 5.554 17.4779 4.35867 18.7157C3.11567 20.0028 2.837 21.4076 2.83333 21.8746H21.1667Z" fill="currentColor"/>
</svg>
