<svg width="24" height="24" viewBox="0 0 24 24" fill="none" xmlns="http://www.w3.org/2000/svg">
<path d="M19.4846 20.154L13.2226 13.892C12.7226 14.318 12.1476 14.6477 11.4976 14.881C10.8476 15.1144 10.1943 15.231 9.53762 15.231C7.93628 15.231 6.58095 14.6767 5.47162 13.568C4.36228 12.4594 3.80762 11.1044 3.80762 9.50305C3.80762 7.90171 4.36162 6.54605 5.46962 5.43605C6.57762 4.32605 7.93228 3.77038 9.53362 3.76905C11.135 3.76771 12.491 4.32238 13.6016 5.43305C14.7123 6.54371 15.2676 7.89938 15.2676 9.50005C15.2676 10.1947 15.1446 10.867 14.8986 11.517C14.6526 12.167 14.3293 12.723 13.9286 13.185L20.1906 19.446L19.4846 20.154ZM9.53862 14.23C10.8653 14.23 11.9853 13.7734 12.8986 12.86C13.8119 11.9467 14.2686 10.8264 14.2686 9.49904C14.2686 8.17171 13.8119 7.05171 12.8986 6.13905C11.9853 5.22638 10.8653 4.76971 9.53862 4.76905C8.21195 4.76838 7.09162 5.22505 6.17762 6.13905C5.26362 7.05305 4.80695 8.17305 4.80762 9.49904C4.80828 10.825 5.26495 11.945 6.17762 12.859C7.09028 13.773 8.21028 14.2297 9.53762 14.229" fill="currentColor"/>
</svg>
